ffmpeg version 3.4.8-0ubuntu0.2 Copyright (c) 2000-2020 the FFmpeg developers
  built with gcc 7 (Ubuntu 7.5.0-3ubuntu1~18.04)
  configuration: --prefix=/usr --extra-version=0ubuntu0.2 --toolchain=hardened --libdir=/usr/lib/x86_64-linux-gnu --incdir=/usr/include/x86_64-linux-gnu --enable-gpl --disable-stripping --enable-avresample --enable-avisynth --enable-gnutls --enable-ladspa --enable-libass --enable-libbluray --enable-libbs2b --enable-libcaca --enable-libcdio --enable-libflite --enable-libfontconfig --enable-libfreetype --enable-libfribidi --enable-libgme --enable-libgsm --enable-libmp3lame --enable-libmysofa --enable-libopenjpeg --enable-libopenmpt --enable-libopus --enable-libpulse --enable-librubberband --enable-librsvg --enable-libshine --enable-libsnappy --enable-libsoxr --enable-libspeex --enable-libssh --enable-libtheora --enable-libtwolame --enable-libvorbis --enable-libvpx --enable-libwavpack --enable-libwebp --enable-libx265 --enable-libxml2 --enable-libxvid --enable-libzmq --enable-libzvbi --enable-omx --enable-openal --enable-opengl --enable-sdl2 --enable-libdc1394 --enable-libdrm --enable-libiec61883 --enable-chromaprint --enable-frei0r --enable-libopencv --enable-libx264 --enable-shared
  libavutil      55. 78.100 / 55. 78.100
  libavcodec     57.107.100 / 57.107.100
  libavformat    57. 83.100 / 57. 83.100
  libavdevice    57. 10.100 / 57. 10.100
  libavfilter     6.107.100 /  6.107.100
  libavresample   3.  7.  0 /  3.  7.  0
  libswscale      4.  8.100 /  4.  8.100
  libswresample   2.  9.100 /  2.  9.100
  libpostproc    54.  7.100 / 54.  7.100
[rawvideo @ 0x556db42d1a20] Estimating duration from bitrate, this may be inaccurate
Input #0, rawvideo, from '../../SVC-Encoder-20220109T061506Z-001/SVC-Encoder/Dataset/RollerCoaster/6f_2x2/tile_yuv/f3_t2_480x480.yuv':
  Duration: 00:00:10.00, start: 0.000000, bitrate: 82944 kb/s
    Stream #0:0: Video: rawvideo (I420 / 0x30323449), yuv420p, 480x480, 82944 kb/s, 30 tbr, 30 tbn, 30 tbc
Stream mapping:
  Stream #0:0 -> #0:0 (rawvideo (native) -> h264 (libx264))
Press [q] to stop, [?] for help
[libx264 @ 0x556db42dec60] using cpu capabilities: MMX2 SSE2Fast LZCNT SSSE3 SSE4.2 AVX
[libx264 @ 0x556db42dec60] profile High, level 3.0
Output #0, rawvideo, to 'RollerCoaster_f3_t2_480x480_x264_QP_28.h264':
  Metadata:
    encoder         : Lavf57.83.100
    Stream #0:0: Video: h264 (libx264), yuv420p, 480x480, q=-1--1, 30 fps, 30 tbn, 30 tbc
    Metadata:
      encoder         : Lavc57.107.100 libx264
    Side data:
      cpb: bitrate max/min/avg: 0/0/0 buffer size: 0 vbv_delay: -1
frame=  151 fps=0.0 q=34.0 PSNR=Y:nan U:nan V:nan *:nan size=      64kB time=00:00:03.60 bitrate= 144.7kbits/s speed=7.17x    frame=  271 fps=270 q=34.0 PSNR=Y:nan U:nan V:nan *:nan size=     116kB time=00:00:07.60 bitrate= 124.7kbits/s speed=7.58x    frame=  300 fps=245 q=34.0 LPSNR=Y:inf U:inf V:inf *:inf size=     154kB time=00:00:09.93 bitrate= 127.1kbits/s speed=8.11x    
video:154kB audio:0kB subtitle:0kB other streams:0kB global headers:0kB muxing overhead: 0.000000%
[libx264 @ 0x556db42dec60] frame I:2     Avg QP:25.81  size: 17118  PSNR Mean Y:43.39 U:47.14 V:45.19 Avg:44.10 Global:44.03
[libx264 @ 0x556db42dec60] frame P:77    Avg QP:27.05  size:  1114  PSNR Mean Y:41.65 U:46.51 V:44.51 Avg:42.57 Global:42.56
[libx264 @ 0x556db42dec60] frame B:221   Avg QP:33.44  size:   171  PSNR Mean Y:41.30 U:46.51 V:44.49 Avg:42.28 Global:42.27
[libx264 @ 0x556db42dec60] consecutive B-frames:  0.7%  2.7%  2.0% 94.7%
[libx264 @ 0x556db42dec60] mb I  I16..4: 32.1% 48.1% 19.8%
[libx264 @ 0x556db42dec60] mb P  I16..4:  0.7%  0.3%  0.0%  P16..4: 24.2%  6.2%  2.6%  0.0%  0.0%    skip:66.0%
[libx264 @ 0x556db42dec60] mb B  I16..4:  0.0%  0.0%  0.0%  B16..8: 15.5%  0.3%  0.0%  direct: 0.0%  skip:84.0%  L0:46.1% L1:52.5% BI: 1.4%
[libx264 @ 0x556db42dec60] 8x8 transform intra:42.7% inter:71.4%
[libx264 @ 0x556db42dec60] coded y,uvDC,uvAC intra: 42.7% 58.9% 25.1% inter: 2.0% 1.6% 0.0%
[libx264 @ 0x556db42dec60] i16 v,h,dc,p: 36% 38% 11% 15%
[libx264 @ 0x556db42dec60] i8 v,h,dc,ddl,ddr,vr,hd,vl,hu: 18% 23% 24%  5%  4%  5%  5%  6% 10%
[libx264 @ 0x556db42dec60] i4 v,h,dc,ddl,ddr,vr,hd,vl,hu: 22% 20% 14% 10%  5%  5%  5%  9% 10%
[libx264 @ 0x556db42dec60] i8c dc,h,v,p: 41% 27% 19% 12%
[libx264 @ 0x556db42dec60] Weighted P-Frames: Y:2.6% UV:0.0%
[libx264 @ 0x556db42dec60] ref P L0: 53.5% 16.0% 20.4%  9.8%  0.2%
[libx264 @ 0x556db42dec60] ref B L0: 59.5% 31.9%  8.6%
[libx264 @ 0x556db42dec60] ref B L1: 71.9% 28.1%
[libx264 @ 0x556db42dec60] PSNR Mean Y:41.402 U:46.513 V:44.501 Avg:42.370 Global:42.353 kb/s:126.26
